<?xml version="1.0" encoding="UTF-8"?>
<svg version="1.1" xmlns="http://www.w3.org/2000/svg" width="256" height="256">
<path d="M0 0 C2.2880228 0.02414734 4.57491463 0.02045835 6.86303711 0.01391602 C18.01140877 0.05618983 18.01140877 0.05618983 21.43139648 2.33618164 C21.74389648 5.83618164 21.74389648 5.83618164 21.43139648 9.33618164 C19.43139648 11.33618164 19.43139648 11.33618164 17.47045898 11.53149414 C16.67381836 11.50829102 15.87717773 11.48508789 15.05639648 11.46118164 C14.16299561 11.44394043 13.26959473 11.42669922 12.34912109 11.40893555 C11.38627197 11.38492676 10.42342285 11.36091797 9.43139648 11.33618164 C-24.46467054 11.00071314 -54.73049817 20.51187652 -79.56860352 44.33618164 C-80.43485352 45.16118164 -81.30110352 45.98618164 -82.19360352 46.83618164 C-82.97735352 47.66118164 -83.76110352 48.48618164 -84.56860352 49.33618164 C-85.12547852 49.88661133 -85.68235352 50.43704102 -86.25610352 51.00415039 C-105.76335257 71.3373112 -115.75912564 101.12389278 -115.61938477 129.00219727 C-114.95492917 159.54159876 -103.74786445 187.25567556 -82.56860352 209.33618164 C-81.74360352 210.20243164 -80.91860352 211.06868164 -80.06860352 211.96118164 C-79.24360352 212.74493164 -78.41860352 213.52868164 -77.56860352 214.33618164 C-77.01817383 214.89305664 -76.46774414 215.44993164 -75.90063477 216.02368164 C-55.22827277 235.85635388 -25.24768324 245.52018069 3.02026367 245.39575195 C32.83865077 244.65904818 61.25891325 233.43773528 82.43139648 212.33618164 C83.28088867 211.49055664 84.13038086 210.64493164 85.00561523 209.77368164 C86.20637695 208.56711914 86.20637695 208.56711914 87.43139648 207.33618164 C88.04241211 206.73418945 88.65342773 206.13219727 89.28295898 205.51196289 C109.68922466 184.07189961 118.96931587 153.44846411 118.4609375 124.3034668 C117.5670505 101.5555838 110.03054752 80.15309552 97.43139648 61.33618164 C97.12202148 62.30555664 96.81264648 63.27493164 96.49389648 64.27368164 C95.43139648 67.33618164 95.43139648 67.33618164 94.43139648 68.33618164 C90.99389648 68.58618164 90.99389648 68.58618164 87.43139648 68.33618164 C85.22595215 65.02801514 85.17512514 63.96846332 85.16577148 60.11743164 C85.16319336 59.10293945 85.16061523 58.08844727 85.15795898 57.04321289 C85.16569336 55.98489258 85.17342773 54.92657227 85.18139648 53.83618164 C85.17366211 52.77786133 85.16592773 51.71954102 85.15795898 50.62915039 C85.16053711 49.6146582 85.16311523 48.60016602 85.16577148 47.55493164 C85.16802734 46.62616211 85.1702832 45.69739258 85.17260742 44.74047852 C85.43139648 42.33618164 85.43139648 42.33618164 87.43139648 39.33618164 C91.87100517 37.85631208 96.21816802 38.11120237 100.86889648 38.08618164 C101.82344727 38.06555664 102.77799805 38.04493164 103.76147461 38.02368164 C104.68250977 38.01852539 105.60354492 38.01336914 106.55249023 38.00805664 C107.39223389 37.99871094 108.23197754 37.98936523 109.09716797 37.97973633 C111.98446859 38.42063779 113.34840067 39.31089064 115.43139648 41.33618164 C115.80639648 44.39868164 115.80639648 44.39868164 115.43139648 47.33618164 C113.03376463 49.73381349 112.0986615 49.6789875 108.80639648 49.96118164 C107.98913086 50.03594727 107.17186523 50.11071289 106.32983398 50.18774414 C105.70334961 50.23672852 105.07686523 50.28571289 104.43139648 50.33618164 C105.07206055 51.2449707 105.71272461 52.15375977 106.37280273 53.09008789 C122.01797153 75.65056695 129.88441751 100.3543103 129.80639648 127.83618164 C129.80552032 128.58940704 129.80464417 129.34263245 129.80374146 130.11868286 C129.7584645 141.92500048 129.03692509 153.03097212 125.43139648 164.33618164 C125.19001953 165.11413086 124.94864258 165.89208008 124.69995117 166.69360352 C119.2389122 183.85294359 110.86806767 198.49780951 99.43139648 212.33618164 C98.80233398 213.10704102 98.17327148 213.87790039 97.52514648 214.67211914 C93.55230995 219.38534794 89.21636692 223.45714365 84.43139648 227.33618164 C83.56901367 228.03614258 82.70663086 228.73610352 81.81811523 229.45727539 C68.31763223 239.99824791 53.77058443 247.26656616 37.43139648 252.33618164 C36.72305664 252.56208984 36.0147168 252.78799805 35.28491211 253.02075195 C14.13489835 259.4607234 -13.56050018 259.03621824 -34.56860352 252.33618164 C-35.34655273 252.09480469 -36.12450195 251.85342773 -36.92602539 251.60473633 C-54.07533277 246.1468903 -68.75074611 237.78579628 -82.56860352 226.33618164 C-83.38973633 225.66844727 -84.21086914 225.00071289 -85.05688477 224.31274414 C-91.01663675 219.26908529 -95.81027674 213.50501242 -100.56860352 207.33618164 C-101.24922852 206.48282227 -101.92985352 205.62946289 -102.63110352 204.75024414 C-111.8178964 192.80023621 -118.05872753 178.66266737 -122.56860352 164.33618164 C-122.78033203 163.67473145 -122.99206055 163.01328125 -123.21020508 162.33178711 C-129.65106442 141.10553196 -129.29460052 113.42568438 -122.56860352 92.33618164 C-122.32722656 91.55823242 -122.08584961 90.7802832 -121.8371582 89.97875977 C-116.37931218 72.82945238 -108.01821815 58.15403904 -96.56860352 44.33618164 C-95.90086914 43.51504883 -95.23313477 42.69391602 -94.54516602 41.84790039 C-89.50232656 35.88911663 -83.73993511 31.08988961 -77.56860352 26.33618164 C-76.27116211 25.31524414 -76.27116211 25.31524414 -74.94750977 24.27368164 C-64.68001697 16.46245384 -53.73161399 10.86951652 -41.63110352 6.52368164 C-40.86999268 6.24580811 -40.10888184 5.96793457 -39.32470703 5.68164062 C-26.40908149 1.26352624 -13.56728102 -0.1534794 0 0 Z " fill="#37A5DD" transform="translate(126.568603515625,-0.336181640625)"/>
<path d="M0 0 C3.6157251 3.07063543 6.98579504 6.36356201 10.35839844 9.69677734 C11.08671875 10.35291016 11.81503906 11.00904297 12.56542969 11.68505859 C28.05893957 25.95620083 37.31004014 49.18121975 38.48388672 69.91308594 C39.61068635 97.9811552 31.71286795 122.88128207 12.51855469 143.82568359 C-4.24567683 161.61608456 -27.4357518 173.06347004 -52.13769531 173.89990234 C-80.43626687 174.35153611 -104.62372042 165.90506608 -125.44262695 146.28076172 C-143.30318702 128.97200801 -153.3058092 105.40449678 -153.92724609 80.53979492 C-154.12763372 61.19145898 -150.06129593 41.72562546 -138.64160156 25.69677734 C-136.64160156 23.69677734 -136.64160156 23.69677734 -134.20410156 23.38427734 C-131.64160156 23.69677734 -131.64160156 23.69677734 -129.76660156 24.75927734 C-127.96670082 27.8591064 -128.93726747 30.26359107 -129.64160156 33.69677734 C-131.12988281 36.95068359 -131.12988281 36.95068359 -132.95410156 40.25927734 C-142.91108228 59.08475164 -144.42539882 81.32302536 -138.64160156 101.69677734 C-134.14161696 115.7192412 -126.97504613 127.19281389 -116.64160156 137.69677734 C-115.88105469 138.47021484 -115.12050781 139.24365234 -114.33691406 140.04052734 C-98.42289664 155.27624239 -77.32514278 162.10828374 -55.54345703 161.99731445 C-33.05064461 161.47471629 -13.56576513 152.36243176 2.35839844 136.69677734 C3.13183594 135.93623047 3.90527344 135.17568359 4.70214844 134.39208984 C19.93786348 118.47807242 26.76990483 97.38031856 26.65893555 75.59863281 C26.13633738 53.10582039 17.02405286 33.62094091 1.35839844 17.69677734 C0.59785156 16.92333984 -0.16269531 16.14990234 -0.94628906 15.35302734 C-16.86030649 0.1173123 -37.95806035 -6.71472905 -59.73974609 -6.60375977 C-74.02547047 -6.27184514 -88.07132645 -2.47346022 -100.37207031 4.89208984 C-103.64160156 6.69677734 -103.64160156 6.69677734 -106.95410156 6.63427734 C-109.64160156 5.69677734 -109.64160156 5.69677734 -111.64160156 2.69677734 C-111.47690419 -0.31483171 -111.16240251 -1.788607 -108.99707031 -3.92822266 C-76.8459408 -24.31956966 -30.4348452 -24.16139258 0 0 Z " fill="#37A5DD" transform="translate(185.6416015625,50.30322265625)"/>
<path d="M0 0 C2 2 2 2 2.5625 4.625 C1.32501799 12.04989204 -6.34152163 17.33416326 -11.625 22.3359375 C-13.457153 24.08626432 -15.28814621 25.83779475 -17.11865234 27.58984375 C-18.37866558 28.78543378 -19.64736306 29.97193412 -20.92431641 31.14941406 C-28.40188953 37.51028652 -28.40188953 37.51028652 -32.56176758 45.94506836 C-32.28791904 48.4453947 -31.70327156 50.59567449 -31 53 C-32.10300703 59.11667533 -34.34699295 62.87759436 -39.1875 66.75 C-44.38283975 69.05903989 -49.18703198 69.33237747 -54.75 68.3125 C-60.0786169 66.16055856 -63.6875439 63.31864902 -66 58 C-66.77456215 53.80906549 -67.50264928 49.71620307 -66.29052734 45.57763672 C-65.70933085 42.96646632 -65.70933085 42.96646632 -67.33935547 41.07470703 C-68.00854004 40.47513184 -68.67772461 39.87555664 -69.3671875 39.2578125 C-70.08777344 38.58363281 -70.80835937 37.90945312 -71.55078125 37.21484375 C-73.09205629 35.82899141 -74.63371889 34.44356997 -76.17578125 33.05859375 C-82.4086039 27.22573833 -82.4086039 27.22573833 -83.0703125 23.1171875 C-83 20 -83 20 -82 18 C-79.53767764 16.76883882 -77.66969306 16.79997761 -74.97509766 17.23339844 C-70.00908291 19.16087511 -66.5745815 24.48258509 -63.22460938 28.44921875 C-59.56677889 32.63843821 -59.56677889 32.63843821 -54.47119141 34.23339844 C-51.88697808 33.9782171 -51.88697808 33.9782171 -49.4855957 33.39794922 C-47 33 -47 33 -44.17944336 33.88476562 C-40.41521773 34.0211946 -40.01230719 33.54200806 -37.32128906 31.10009766 C-35.95144169 29.72237954 -34.60059502 28.32560212 -33.265625 26.9140625 C-32.18677032 25.81679337 -32.18677032 25.81679337 -31.08612061 24.69735718 C-28.79040561 22.3558252 -26.5199605 19.99148304 -24.25 17.625 C-21.96076694 15.2709909 -19.66669057 12.92180858 -17.37103271 10.57406616 C-15.94381672 9.11090759 -14.52135232 7.64309659 -13.10406494 6.1703186 C-12.46289734 5.50648163 -11.82172974 4.84264465 -11.16113281 4.15869141 C-10.59742981 3.57165436 -10.03372681 2.98461731 -9.45294189 2.37979126 C-6.49981224 -0.42465846 -3.94566291 -0.24660393 0 0 Z M-55 47 C-56.16977494 49.34872531 -56.16977494 49.34872531 -56 52 C-54.67963999 55.2275467 -53.86910604 56.63406062 -50.625 58 C-47.17164129 58 -45.64253676 57.20211397 -43 55 C-41.83022506 52.65127469 -41.83022506 52.65127469 -42 50 C-43.32036001 46.7724533 -44.13089396 45.36593938 -47.375 44 C-50.82835871 44 -52.35746324 44.79788603 -55 47 Z " fill="#34AADF" transform="translate(177,77)"/>
<path d="M0 0 C1.5 1.875 1.5 1.875 1.875 4.9375 C1.5 7.875 1.5 7.875 -0.5 9.875 C-3.21484375 10.17578125 -3.21484375 10.17578125 -6.4375 10.1875 C-7.49839844 10.20425781 -8.55929688 10.22101563 -9.65234375 10.23828125 C-12.5 9.875 -12.5 9.875 -14.3828125 8.546875 C-15.5 6.875 -15.5 6.875 -15.4375 3.8125 C-14.5 0.875 -14.5 0.875 -12.9375 -0.5 C-8.44779978 -1.65120519 -4.27826429 -1.92521893 0 0 Z " fill="#37A6DD" transform="translate(66.5,123.125)"/>
<path d="M0 0 C2.9375 0.375 2.9375 0.375 4.9375 2.375 C5.16796875 5.125 5.16796875 5.125 5.125 8.375 C5.11533203 9.98375 5.11533203 9.98375 5.10546875 11.625 C4.9375 14.375 4.9375 14.375 3.9375 16.375 C1.0625 17.125 1.0625 17.125 -2.0625 17.375 C-5.0625 15.375 -5.0625 15.375 -6.0625 12.375 C-6.50763138 5.36418083 -6.50763138 5.36418083 -4.9375 1.875 C-3.0625 0.375 -3.0625 0.375 0 0 Z " fill="#38A5DD" transform="translate(128.0625,187.625)"/>
<path d="M0 0 C1.0725 0.01417969 2.145 0.02835937 3.25 0.04296875 C4.3225 0.04941406 5.395 0.05585937 6.5 0.0625 C9.25 0.23046875 9.25 0.23046875 11.25 1.23046875 C12 4.10546875 12 4.10546875 12.25 7.23046875 C10.25 10.23046875 10.25 10.23046875 7.25 11.23046875 C0.23918083 11.67560013 0.23918083 11.67560013 -3.25 10.10546875 C-4.75 8.23046875 -4.75 8.23046875 -5.125 5.16796875 C-4.62930075 1.28499127 -3.9438459 0.33052118 0 0 Z " fill="#38A5DD" transform="translate(192.75,122.76953125)"/>
<path d="M0 0 C2.45912613 2.92753111 2.36261562 6.41988408 2.24609375 10.09375 C1.88354434 12.9020692 1.21633759 14.22692993 -1 16 C-4.0625 16.375 -4.0625 16.375 -7 16 C-9 14 -9 14 -9.23046875 11.25 C-9.21628906 10.1775 -9.20210938 9.105 -9.1875 8 C-9.18105469 6.9275 -9.17460938 5.855 -9.16796875 4.75 C-9 2 -9 2 -8 0 C-4.66411172 -1.11196276 -3.29427581 -1.09809194 0 0 Z " fill="#38A6DD" transform="translate(132,52)"/>
<path d="M0 0 C2.4375 0.75 2.4375 0.75 4.4375 2.75 C4.6875 5.75 4.6875 5.75 4.4375 8.75 C2.4375 10.75 2.4375 10.75 -1.0625 11.0625 C-2.795 10.9078125 -2.795 10.9078125 -4.5625 10.75 C-6.5625 7.75 -6.5625 7.75 -6.375 4.6875 C-5.32105756 0.87709272 -4.04091296 -0.39423541 0 0 Z " fill="#37A4DC" transform="translate(163.5625,4.25)"/>
<path d="M0 0 C3 0.25 3 0.25 5 2.25 C5.25 5.25 5.25 5.25 5 8.25 C3 10.25 3 10.25 0 10.5 C-3 10.25 -3 10.25 -5 8.25 C-5.25 5.25 -5.25 5.25 -5 2.25 C-3 0.25 -3 0.25 0 0 Z " fill="#37A5DC" transform="translate(64,58.75)"/>
</svg>
