<?xml version="1.0" encoding="UTF-8"?>
<svg version="1.1" xmlns="http://www.w3.org/2000/svg" width="128" height="128">
<path d="M0 0 C1.0094165 -0.0112793 2.01883301 -0.02255859 3.05883789 -0.03417969 C4.16026123 -0.02608276 5.26168457 -0.01798584 6.39648438 -0.00964355 C7.56107178 -0.01665283 8.72565918 -0.02366211 9.92553711 -0.03088379 C13.78067771 -0.04850975 17.63508612 -0.03682384 21.49023438 -0.02331543 C24.1653739 -0.026009 26.84049107 -0.02988396 29.515625 -0.03491211 C35.12442987 -0.0421874 40.733024 -0.03260414 46.34179688 -0.0135498 C52.82441344 0.008219 59.30652679 0.00116752 65.78913116 -0.02085543 C71.35700027 -0.03901302 76.92471797 -0.04156609 82.49260712 -0.03110075 C85.81719107 -0.02486765 89.14148689 -0.02559741 92.46606445 -0.0372467 C96.17238595 -0.04738291 99.87773545 -0.03195028 103.58398438 -0.00964355 C104.68540771 -0.01774048 105.78683105 -0.0258374 106.92163086 -0.03417969 C108.43575562 -0.01726074 108.43575562 -0.01726074 109.98046875 0 C110.85650757 0.0015081 111.73254639 0.0030162 112.63513184 0.00457001 C115.81616447 0.68446359 117.01482258 1.96753562 118.99023438 4.50793457 C119.38476251 7.51454046 119.53746156 10.15432811 119.5078125 13.16027832 C119.51482178 14.03225861 119.52183105 14.90423889 119.52905273 15.80264282 C119.54665244 18.68389771 119.53500303 21.56416976 119.52148438 24.44543457 C119.52417872 26.44795928 119.52806066 28.45048271 119.53308105 30.45300293 C119.53897878 34.6495001 119.53040421 38.84565668 119.51171875 43.04211426 C119.48892916 48.42269501 119.50205076 53.80247771 119.52600861 59.18302917 C119.54045909 63.3180137 119.53586401 67.45280886 119.52549744 71.58779907 C119.52282808 73.57174779 119.52610722 75.55571366 119.53541565 77.53964233 C119.54556883 80.31208878 119.5300976 83.08324085 119.5078125 85.85559082 C119.51590942 86.676492 119.52400635 87.49739319 119.53234863 88.34317017 C119.4782461 91.97417494 119.331807 94.0641197 117.08288574 96.98620605 C114.0525844 99.18977232 112.4162583 99.63200892 108.72412109 99.62145996 C107.40297806 99.62134666 107.40297806 99.62134666 106.05514526 99.62123108 C105.10302155 99.61606979 104.15089783 99.61090851 103.16992188 99.60559082 C102.19612579 99.60417587 101.22232971 99.60276093 100.21902466 99.6013031 C97.10106364 99.5956943 93.98317378 99.58314031 90.86523438 99.57043457 C88.75455833 99.5654207 86.64388116 99.5608576 84.53320312 99.5567627 C79.35218916 99.54572202 74.17121685 99.5289753 68.99023438 99.50793457 C69.93957336 102.86226566 70.88772273 106.20039962 71.99023438 109.50793457 C73.45396484 109.68969238 73.45396484 109.68969238 74.94726562 109.87512207 C76.21957031 110.0427002 77.491875 110.21027832 78.80273438 110.38293457 C80.06730469 110.54535645 81.331875 110.70777832 82.63476562 110.87512207 C85.99023438 111.50793457 85.99023438 111.50793457 88.99023438 113.50793457 C89.88585552 116.67705555 90.27938651 118.68496312 89.17773438 121.82043457 C87.99023438 123.50793457 87.99023438 123.50793457 85.99023438 124.50793457 C84.03532131 124.60948413 82.07692158 124.64633961 80.11938477 124.65319824 C78.88793228 124.65957809 77.6564798 124.66595795 76.38771057 124.67253113 C75.03777099 124.67405974 73.68783088 124.67517374 72.33789062 124.67590332 C70.9578803 124.67911562 69.57787032 124.68247967 68.19786072 124.68598938 C65.30352997 124.69198141 62.40922909 124.6938292 59.51489258 124.6932373 C55.80464709 124.69313566 52.09459288 124.70678952 48.38439274 124.72400951 C45.53367736 124.73512342 42.68300831 124.7371567 39.83227348 124.73662758 C38.46432269 124.73780855 37.09637074 124.74223692 35.72844124 124.74995995 C33.81581202 124.75974722 31.90312684 124.7556208 29.99047852 124.75085449 C28.90174942 124.75227951 27.81302032 124.75370453 26.69129944 124.75517273 C23.99023437 124.50793457 23.99023437 124.50793457 20.99023438 122.50793457 C20.13489331 119.48134312 19.69663507 117.40863753 20.68164062 114.38684082 C21.99023437 112.50793457 21.99023437 112.50793457 24.16210938 111.71496582 C25.01289062 111.58477051 25.86367188 111.4545752 26.74023438 111.32043457 C28.07441406 111.10193848 28.07441406 111.10193848 29.43554688 110.87902832 C30.27859375 110.75656738 31.12164062 110.63410645 31.99023438 110.50793457 C33.78460938 110.19855957 33.78460938 110.19855957 35.61523438 109.88293457 C36.39898437 109.75918457 37.18273438 109.63543457 37.99023438 109.50793457 C38.98023438 106.20793457 39.97023437 102.90793457 40.99023438 99.50793457 C39.03017456 99.53150024 39.03017456 99.53150024 37.03051758 99.55554199 C32.17576274 99.60990177 27.32103474 99.64430683 22.46606445 99.67272949 C20.36608351 99.68780229 18.26613398 99.70826398 16.16625977 99.73425293 C13.14526614 99.77070211 10.12468927 99.78767616 7.10351562 99.80090332 C6.16687576 99.81638718 5.2302359 99.83187103 4.26521301 99.8478241 C-0.62713636 99.84908307 -4.07734426 99.78089081 -8.00976562 96.50793457 C-9.63798747 93.25149087 -9.17514478 89.66207244 -9.18676758 86.0826416 C-9.19333878 85.21095337 -9.19990997 84.33926514 -9.2066803 83.44116211 C-9.22643173 80.54935628 -9.23807901 77.65760239 -9.24804688 74.76574707 C-9.25416017 73.28659128 -9.25416017 73.28659128 -9.26039696 71.77755356 C-9.28126399 66.55991575 -9.29556386 61.34230431 -9.30493164 56.12463379 C-9.316007 50.72839174 -9.35041813 45.33256082 -9.39010334 39.93646431 C-9.41621212 35.79295063 -9.42461829 31.64953583 -9.42821312 27.50594711 C-9.4330927 25.51638889 -9.44474548 23.52683547 -9.46325111 21.53735733 C-9.4875242 18.75524265 -9.48669948 15.97420411 -9.47973633 13.1920166 C-9.49254639 12.36797333 -9.50535645 11.54393005 -9.51855469 10.69491577 C-9.48716446 7.25979144 -9.4381573 5.05946503 -7.29239178 2.29691124 C-4.59553899 0.18329018 -3.38533547 0.00582786 0 0 Z M-4.00976562 7.50793457 C-4.30370401 10.50427288 -4.30370401 10.50427288 -4.23681641 14.06896973 C-4.23710846 14.74225815 -4.23740051 15.41554657 -4.23770142 16.10923767 C-4.2363061 18.33862111 -4.22073579 20.56767189 -4.20507812 22.79699707 C-4.2013487 24.3411338 -4.1985014 25.8852729 -4.19650269 27.42941284 C-4.18886062 31.496689 -4.1692073 35.56382268 -4.14709473 39.63104248 C-4.12664858 43.78009107 -4.11750361 47.92916264 -4.10742188 52.07824707 C-4.08596187 60.22154168 -4.05181911 68.36472041 -4.00976562 76.50793457 C-3.01976562 76.50793457 -2.02976562 76.50793457 -1.00976562 76.50793457 C-0.67976562 54.39793457 -0.34976562 32.28793457 -0.00976562 9.50793457 C36.29023438 9.50793457 72.59023438 9.50793457 109.99023438 9.50793457 C110.32023437 31.61793457 110.65023437 53.72793457 110.99023438 76.50793457 C111.98023437 76.50793457 112.97023438 76.50793457 113.99023438 76.50793457 C114.03651587 67.54601062 114.07208218 58.58412762 114.09385872 49.62211037 C114.10430883 45.46096204 114.11849029 41.29989531 114.14111328 37.13879395 C114.16279808 33.12527028 114.17479375 29.11182524 114.17998886 25.09824753 C114.18369249 23.56479021 114.19092449 22.03133733 114.20169449 20.49791336 C114.21615166 18.35483656 114.21821478 16.21208721 114.21728516 14.06896973 C114.22172638 12.84763336 114.2261676 11.626297 114.23074341 10.36795044 C114.28897749 7.37643387 114.28897749 7.37643387 111.99023438 5.50793457 C109.88965897 5.20436313 109.88965897 5.20436313 107.43530273 5.25396729 C106.47623016 5.24832764 105.51715759 5.24268799 104.52902222 5.23687744 C103.47337067 5.2409259 102.41771912 5.24497437 101.33007812 5.24914551 C99.66659836 5.24388855 99.66659836 5.24388855 97.96951294 5.23852539 C94.28885717 5.22969362 90.60839224 5.2355624 86.92773438 5.24230957 C84.37947553 5.24096334 81.83121694 5.23902316 79.28295898 5.23651123 C73.93633345 5.233558 68.58977687 5.2376744 63.24316406 5.24719238 C57.05719166 5.25807725 50.87135109 5.25455177 44.68538189 5.24353957 C38.74053026 5.23337921 32.79571968 5.23444293 26.8508606 5.24030304 C24.3182066 5.24164103 21.78554926 5.23998664 19.25289917 5.23534393 C15.71863786 5.23028759 12.18463276 5.23797653 8.65039062 5.24914551 C7.59473907 5.24509705 6.53908752 5.24104858 5.45144653 5.23687744 C4.01283768 5.24533691 4.01283768 5.24533691 2.54516602 5.25396729 C1.29081505 5.25509836 1.29081505 5.25509836 0.01112366 5.25625229 C-2.23755234 5.32618941 -2.23755234 5.32618941 -4.00976562 7.50793457 Z M3.99023438 13.50793457 C3.99023438 34.29793457 3.99023438 55.08793457 3.99023438 76.50793457 C37.65023438 76.50793457 71.31023438 76.50793457 105.99023438 76.50793457 C105.99023438 55.71793457 105.99023438 34.92793457 105.99023438 13.50793457 C72.33023438 13.50793457 38.67023437 13.50793457 3.99023438 13.50793457 Z M-4.00976562 82.50793457 C-4.00976562 85.80793457 -4.00976562 89.10793457 -4.00976562 92.50793457 C-0.31731979 94.35415749 0.77262967 94.7582855 4.62036133 94.76190186 C5.54563629 94.7675415 6.47091125 94.77318115 7.42422485 94.7789917 C8.93609879 94.77291901 8.93609879 94.77291901 10.47851562 94.76672363 C12.07909317 94.77198059 12.07909317 94.77198059 13.71200562 94.77734375 C17.24231454 94.78615265 20.77242338 94.78031477 24.30273438 94.77355957 C26.7536625 94.77490646 29.20459037 94.77684719 31.65551758 94.77935791 C36.79348289 94.78230804 41.9313787 94.77801504 47.06933594 94.76867676 C53.66038038 94.75728237 60.25126195 94.76384242 66.84230042 94.77582169 C71.90369904 94.78304324 76.96505896 94.78075098 82.02645874 94.7755661 C84.45698058 94.77423043 86.88750592 94.77587445 89.31802368 94.78052521 C92.71276177 94.78559518 96.10723481 94.77787329 99.50195312 94.76672363 C100.50986908 94.77077209 101.51778503 94.77482056 102.5562439 94.7789917 C103.48151886 94.77335205 104.40679382 94.7677124 105.36010742 94.76190186 C106.1624028 94.7611478 106.96469818 94.76039375 107.79130554 94.75961685 C110.40081851 94.58814545 110.40081851 94.58814545 113.99023438 92.50793457 C113.99023438 89.20793457 113.99023438 85.90793457 113.99023438 82.50793457 C75.05023438 82.50793457 36.11023437 82.50793457 -4.00976562 82.50793457 Z M46.99023438 99.50793457 C45.67023437 103.46793457 44.35023437 107.42793457 42.99023438 111.50793457 C50.91023438 111.50793457 58.83023438 111.50793457 66.99023438 111.50793457 C65.67023438 107.54793457 64.35023437 103.58793457 62.99023438 99.50793457 C57.71023437 99.50793457 52.43023437 99.50793457 46.99023438 99.50793457 Z M25.99023438 116.50793457 C25.99023438 117.49793457 25.99023438 118.48793457 25.99023438 119.50793457 C45.13023438 119.50793457 64.27023438 119.50793457 83.99023438 119.50793457 C83.99023438 118.51793457 83.99023438 117.52793457 83.99023438 116.50793457 C64.85023437 116.50793457 45.71023437 116.50793457 25.99023438 116.50793457 Z " fill="#37A5DD" transform="translate(9.009765625,1.4920654296875)"/>
<path d="M0 0 C1.70209877 0.00333092 1.70209877 0.00333092 3.43858337 0.00672913 C4.71983597 0.00680466 6.00108856 0.00688019 7.32116699 0.00695801 C8.73001646 0.01206542 10.13886554 0.01728143 11.54771423 0.02259827 C12.98118033 0.02446249 14.41464706 0.02588637 15.84811401 0.02688599 C19.62765755 0.03071079 23.40716288 0.04054075 27.18669128 0.05158997 C31.71793579 0.06359972 36.24919305 0.0682065 40.78044891 0.07404327 C47.67034521 0.08375254 54.56015761 0.10290931 61.45005798 0.12025452 C61.45005798 10.68025452 61.45005798 21.24025452 61.45005798 32.12025452 C64.09005798 32.78025452 66.73005798 33.44025452 69.45005798 34.12025452 C70.45005798 38.12025452 70.45005798 38.12025452 69.51255798 40.37025452 C69.16193298 40.94775452 68.81130798 41.52525452 68.45005798 42.12025452 C69.13068298 42.69775452 69.81130798 43.27525452 70.51255798 43.87025452 C71.15193298 44.61275452 71.79130798 45.35525452 72.45005798 46.12025452 C72.01743913 50.16075134 69.91497878 52.28177692 67.06724548 54.97962952 C65.45005798 56.12025452 65.45005798 56.12025452 62.82505798 56.18275452 C60.38206646 55.08983726 58.484263 53.85309583 56.45005798 52.12025452 C55.79005798 52.78025452 55.13005798 53.44025452 54.45005798 54.12025452 C53.13005798 54.12025452 51.81005798 54.12025452 50.45005798 54.12025452 C49.79005798 51.15025452 49.13005798 48.18025452 48.45005798 45.12025452 C47.81334671 45.12247513 47.17663544 45.12469574 46.52062988 45.12698364 C39.91890522 45.14903492 33.31719094 45.16416045 26.71543884 45.17518616 C24.24863765 45.18022808 21.78183946 45.18706142 19.31504822 45.19569397 C15.77801269 45.20776576 12.24101653 45.21348408 8.70396423 45.21791077 C7.59356277 45.22307205 6.48316132 45.22823334 5.33911133 45.23355103 C3.8076371 45.23366432 3.8076371 45.23366432 2.245224 45.23377991 C0.88954063 45.23711082 0.88954063 45.23711082 -0.49353027 45.24050903 C-2.54994202 45.12025452 -2.54994202 45.12025452 -3.54994202 44.12025452 C-3.64779543 42.77481125 -3.67792187 41.42432889 -3.67933655 40.07533264 C-3.68248871 39.21774353 -3.68564087 38.36015442 -3.68888855 37.47657776 C-3.68686432 36.54430359 -3.68484009 35.61202942 -3.68275452 34.65150452 C-3.68371124 33.70086121 -3.68466797 32.7502179 -3.68565369 31.77076721 C-3.68633558 29.75656569 -3.68448064 27.74236199 -3.68031311 25.72816467 C-3.674965 22.63355097 -3.68025779 19.53908242 -3.68666077 16.44447327 C-3.68599999 14.49265003 -3.68471883 12.54082688 -3.68275452 10.58900452 C-3.68477875 9.65673035 -3.68680298 8.72445618 -3.68888855 7.76393127 C-3.68573639 6.90634216 -3.68258423 6.04875305 -3.67933655 5.16517639 C-3.67854095 4.40652283 -3.67774536 3.64786926 -3.67692566 2.8662262 C-3.46900127 0.00735323 -2.86769988 0.13523988 0 0 Z M1.45005798 5.12025452 C1.45005798 6.77025452 1.45005798 8.42025452 1.45005798 10.12025452 C19.60005798 10.12025452 37.75005798 10.12025452 56.45005798 10.12025452 C56.45005798 8.47025452 56.45005798 6.82025452 56.45005798 5.12025452 C38.30005798 5.12025452 20.15005798 5.12025452 1.45005798 5.12025452 Z M1.45005798 16.12025452 C1.45005798 24.04025452 1.45005798 31.96025452 1.45005798 40.12025452 C16.30005798 40.12025452 31.15005798 40.12025452 46.45005798 40.12025452 C45.79005798 36.49025452 45.13005798 32.86025452 44.45005798 29.12025452 C47.74701903 28.0212675 48.85500702 28.24901008 52.13755798 29.05775452 C53.56068298 29.40837952 54.98380798 29.75900452 56.45005798 30.12025452 C56.45005798 25.50025452 56.45005798 20.88025452 56.45005798 16.12025452 C38.30005798 16.12025452 20.15005798 16.12025452 1.45005798 16.12025452 Z M50.45005798 34.12025452 C51.44005798 38.08025452 52.43005798 42.04025452 53.45005798 46.12025452 C55.43005798 46.12025452 57.41005798 46.12025452 59.45005798 46.12025452 C61.32505798 47.62025452 61.32505798 47.62025452 62.45005798 49.12025452 C63.44005798 48.79025452 64.43005798 48.46025452 65.45005798 48.12025452 C64.79005798 47.23337952 64.13005798 46.34650452 63.45005798 45.43275452 C61.45005798 42.12025452 61.45005798 42.12025452 61.45005798 37.12025452 C57.82005798 36.13025452 54.19005798 35.14025452 50.45005798 34.12025452 Z " fill="#37A5DD" transform="translate(30.549942016601563,18.879745483398438)"/>
<path d="M0 0 C0.89460938 -0.00128906 1.78921875 -0.00257812 2.7109375 -0.00390625 C3.65195312 -0.00003906 4.59296875 0.00382812 5.5625 0.0078125 C6.97402344 0.00201172 6.97402344 0.00201172 8.4140625 -0.00390625 C9.75597656 -0.00197266 9.75597656 -0.00197266 11.125 0 C11.95128906 0.00112793 12.77757813 0.00225586 13.62890625 0.00341797 C15.5625 0.1328125 15.5625 0.1328125 16.5625 1.1328125 C16.66123816 3.13080822 16.69221799 5.13238408 16.6875 7.1328125 C16.69136719 8.7725 16.69136719 8.7725 16.6953125 10.4453125 C16.5625 13.1328125 16.5625 13.1328125 15.5625 14.1328125 C14.08597336 14.23162047 12.60482764 14.26360495 11.125 14.265625 C9.78308594 14.26755859 9.78308594 14.26755859 8.4140625 14.26953125 C7.47304688 14.26566406 6.53203125 14.26179688 5.5625 14.2578125 C4.15097656 14.26361328 4.15097656 14.26361328 2.7109375 14.26953125 C1.81632812 14.26824219 0.92171875 14.26695313 0 14.265625 C-0.82628906 14.26449707 -1.65257812 14.26336914 -2.50390625 14.26220703 C-4.4375 14.1328125 -4.4375 14.1328125 -5.4375 13.1328125 C-5.53623816 11.13481678 -5.56721799 9.13324092 -5.5625 7.1328125 C-5.56507812 6.0396875 -5.56765625 4.9465625 -5.5703125 3.8203125 C-5.35455442 -0.54561571 -3.94227616 0.00538142 0 0 Z M-0.4375 5.1328125 C-0.4375 6.4528125 -0.4375 7.7728125 -0.4375 9.1328125 C3.5225 9.1328125 7.4825 9.1328125 11.5625 9.1328125 C11.5625 7.8128125 11.5625 6.4928125 11.5625 5.1328125 C7.6025 5.1328125 3.6425 5.1328125 -0.4375 5.1328125 Z " fill="#38A5DD" transform="translate(41.4375,41.8671875)"/>
<path d="M0 0 C1.48831242 0.00667405 2.97660807 0.01863442 4.46484375 0.03515625 C5.22345703 0.03966797 5.98207031 0.04417969 6.76367188 0.04882812 C8.64326246 0.06064945 10.52281274 0.07858547 12.40234375 0.09765625 C12.96484375 2.03515625 12.96484375 2.03515625 13.40234375 4.09765625 C12.40234375 5.09765625 12.40234375 5.09765625 8.8046875 5.1953125 C7.31637508 5.18863845 5.82807943 5.17667808 4.33984375 5.16015625 C3.58123047 5.15564453 2.82261719 5.15113281 2.04101562 5.14648438 C0.16142504 5.13466305 -1.71812524 5.11672703 -3.59765625 5.09765625 C-4.16015625 3.16015625 -4.16015625 3.16015625 -4.59765625 1.09765625 C-3.59765625 0.09765625 -3.59765625 0.09765625 0 0 Z " fill="#38A5DD" transform="translate(59.59765625,86.90234375)"/>
</svg>
